<svg width="2003" height="1874" viewBox="0 0 2003 1874" fill="none" xmlns="http://www.w3.org/2000/svg">
<path d="M751.519 175.337C836.422 -58.1077 1166.58 -58.1074 1251.48 175.337L1323.2 372.539C1361.43 477.653 1461.33 547.622 1573.18 547.622H1735.61C2000.49 547.622 2102.61 892.532 1880.44 1036.74L1802.53 1087.31C1698.64 1154.74 1655.04 1284.95 1697.37 1401.35L1738.93 1515.6C1826.17 1755.49 1558.23 1968.61 1344.12 1829.64L1146.32 1701.25C1058.24 1644.07 944.761 1644.07 856.677 1701.25L658.878 1829.64C444.767 1968.61 176.828 1755.49 264.074 1515.6L305.628 1401.35C347.96 1284.95 304.358 1154.74 200.47 1087.31L122.564 1036.74C-99.6104 892.532 2.5141 547.622 267.388 547.622H429.818C541.667 547.622 641.569 477.653 679.798 372.539L751.519 175.337Z" fill="#FFF75C"/>
</svg>
